<svg version="1.2" xmlns="http://www.w3.org/2000/svg" viewBox="0 0 514 374" width="514" height="374"><defs><linearGradient id="P" gradientUnits="userSpaceOnUse"/><linearGradient id="g1" x2="1" href="#P" gradientTransform="matrix(0,-373.422,513.543,0,257.07,374.108)"><stop stop-color="#fe7878"/><stop offset="1" stop-color="#e18989"/></linearGradient></defs><style>.a{fill:url(#g1)}</style><path class="a" d="m317 187q-34.8-16.8-62.4-25.4-59.5 71.9-70.3 139.4-1.6 11-1.6 22.2 0 11 2.1 22.2-23.4 17.3-48.1 25.7-8.7 3-14 3-5.4 0-11.2-2.8-5.6-2.8-10.3-8.6-11.2-13.1-11.2-34.8 0-21.8 7.7-43.9 7.9-22.2 21.7-44.9 25.9-42.7 74.7-89-19.1-1.1-38-1.1-18.9 0-39.5 4.9-43.4 10.3-51.8 39.2-1.7 5.2-1.7 13.6 0 8.1 5.6 21.2-4.6 8.7-21.7 7-17.7-1.6-27.8-9.6-18.9-14.9-18.9-32.9 0-35 49-56.3 45.6-19.8 111-19.8 29.2 0 64 7.5 87.5-72.9 179.5-106.8 44.4-16.3 78.5-16.3 15.9 0 23.6 7.2 7.9 7 7.9 18 0 10.8-5.8 26.9-5.6 16.1-14.2 35.9-8.7 19.6-18.7 42.3-9.8 22.7-18.5 46.2-20.1 54.9-20.1 93 0 27.8 24.6 27.8 7 0 15.4-3.5 4.4 3 7.2 8.1 2.8 5 2.8 8.7 0 3.7-3 10.7-2.8 7-8.2 14.3-5.4 7-13.1 13.5-7.4 6.6-16.6 11.7-34 19.4-73.7 5.8-33-10.9-47-45.3-7-17.7-7-40.4 0-22.6 7-42.5 7-20.1 18.2-39.2 11.5-19.4 26-37.4 14.7-18 29.8-34.3 15.5-16.6 29.9-31.1 14.7-14.4 26-26.8 25.4-27.3 25.4-37.6 0-5.4-9.8-5.4-42.5 0-96.9 31.8-52.6 30.8-98.6 79.6 37.2 13.3 45.1 24.1 9.1 12.1-3 24.2z"/></svg>